<?xml version="1.0" standalone="no"?>
<!DOCTYPE svg PUBLIC "-//W3C//DTD SVG 20010904//EN"
 "http://www.w3.org/TR/2001/REC-SVG-20010904/DTD/svg10.dtd">
<svg version="1.0" xmlns="http://www.w3.org/2000/svg"
 width="811.000000pt" height="811.000000pt" viewBox="0 0 811.000000 811.000000"
 preserveAspectRatio="xMidYMid meet">
<metadata>
Created by potrace 1.11, written by Peter Selinger 2001-2013
</metadata>
<g transform="translate(0.000000,811.000000) scale(0.100000,-0.100000)"
fill="#000000" stroke="none">
<path d="M3668 7295 c-2 -1 -43 -6 -93 -9 -77 -6 -177 -19 -310 -42 -324 -55
-754 -215 -1048 -389 -75 -45 -78 -47 -64 -68 8 -12 40 -65 72 -117 32 -52 61
-98 65 -103 3 -4 46 15 95 43 342 198 774 338 1150 375 33 4 78 8 100 10 55 6
421 6 470 0 22 -2 65 -7 95 -10 524 -54 1081 -280 1500 -609 237 -187 456
-419 608 -646 31 -47 60 -86 65 -88 4 -2 7 -7 7 -12 0 -4 18 -37 39 -73 154
-252 302 -646 346 -917 3 -19 10 -60 15 -90 5 -30 11 -80 14 -110 3 -30 8 -84
12 -120 12 -119 4 -460 -12 -544 -2 -12 -6 -39 -9 -61 -23 -198 -106 -499
-190 -695 -75 -174 -205 -420 -226 -428 -5 -2 -9 -8 -9 -14 0 -16 -132 -198
-215 -297 -111 -131 -239 -259 -382 -380 l-51 -43 90 -114 c55 -70 94 -111
101 -107 26 15 126 102 211 183 406 389 672 811 846 1340 36 109 94 345 104
421 3 19 9 64 15 100 19 115 26 238 26 439 0 256 -10 361 -60 625 -77 409
-289 882 -559 1245 -174 235 -407 470 -641 647 -214 162 -476 313 -710 408
-49 20 -99 40 -110 45 -17 8 -101 36 -240 79 -58 19 -191 50 -295 70 -126 24
-173 31 -320 47 -59 6 -496 14 -502 9z"/>
<path d="M1823 6583 c-418 -335 -735 -752 -950 -1248 -21 -49 -28 -67 -79
-210 -26 -74 -62 -193 -70 -235 -3 -14 -11 -50 -19 -80 -14 -55 -35 -164 -41
-210 -8 -64 -16 -127 -19 -150 -15 -105 -22 -437 -11 -560 11 -131 21 -201 53
-395 2 -16 18 -82 35 -145 16 -63 31 -122 33 -130 2 -8 19 -60 38 -115 183
-533 494 -996 927 -1376 78 -69 285 -229 295 -229 8 0 100 -65 103 -72 2 -5 8
-8 13 -8 5 0 39 -18 76 -41 312 -191 806 -366 1168 -414 28 -4 61 -9 75 -11
168 -26 691 -26 837 0 10 2 41 7 68 10 28 4 82 13 120 21 39 8 81 16 95 18 80
15 271 70 395 114 214 76 437 182 621 297 140 86 134 65 48 191 -41 60 -78
113 -83 118 -5 5 -60 -22 -133 -66 -207 -125 -444 -232 -668 -301 -85 -26
-268 -71 -325 -80 -206 -33 -218 -35 -330 -43 -712 -51 -1407 144 -1975 556
-338 244 -627 567 -827 921 -56 99 -72 131 -130 258 -76 166 -159 431 -189
602 -2 14 -9 48 -14 75 -9 50 -14 90 -29 240 -9 85 -6 443 3 510 4 22 11 74
17 115 40 285 118 550 242 815 28 61 57 117 64 126 7 8 13 19 13 23 0 16 177
295 223 353 185 229 340 388 510 523 59 46 107 87 107 90 0 3 -19 31 -43 62
-23 32 -60 83 -81 113 -22 30 -43 55 -48 55 -4 0 -56 -39 -115 -87z"/>
<path d="M2997 6417 c-2 -12 -48 -173 -102 -357 -135 -466 -135 -483 -11 -683
34 -56 83 -140 108 -187 25 -47 56 -103 68 -125 13 -22 39 -71 59 -108 20 -37
43 -80 51 -95 27 -47 161 -295 198 -362 19 -36 43 -78 52 -95 10 -16 31 -55
47 -85 17 -30 71 -129 120 -220 50 -91 104 -190 120 -220 81 -149 267 -489
283 -515 10 -16 34 -61 55 -100 20 -38 46 -88 59 -110 12 -22 42 -76 66 -120
24 -44 64 -118 90 -165 26 -47 66 -121 90 -165 24 -44 51 -94 61 -112 10 -18
35 -63 55 -100 59 -109 89 -163 138 -252 25 -46 46 -85 46 -87 0 -3 10 -21 23
-42 20 -31 89 -156 133 -241 12 -23 13 -23 24 20 6 24 18 67 26 95 8 28 16 60
18 70 2 11 37 138 76 284 64 234 72 271 66 322 -7 70 -45 162 -130 318 -35 63
-83 151 -106 195 -24 44 -46 85 -50 90 -4 6 -31 55 -60 110 -29 55 -64 120
-78 145 -13 25 -56 104 -94 175 -39 72 -85 157 -103 190 -72 133 -365 676
-410 760 -26 50 -51 95 -55 100 -4 6 -32 57 -62 115 -31 58 -64 121 -75 140
-11 19 -39 71 -63 115 -24 44 -89 163 -145 265 -56 102 -130 239 -165 305
-209 400 -224 429 -327 612 -41 73 -78 135 -82 138 -5 2 -11 -5 -14 -18z"/>
<path d="M3800 5452 c0 -3 345 -635 354 -649 1 0 134 -4 296 -8 280 -7 441
-12 466 -14 8 -1 5 -23 -8 -68 -10 -38 -32 -115 -48 -173 -15 -58 -63 -233
-106 -389 l-77 -284 71 -141 c40 -78 108 -208 152 -291 44 -82 115 -219 158
-302 42 -84 80 -153 83 -153 4 0 11 24 18 53 6 28 13 59 15 67 26 93 237 878
391 1455 52 198 100 374 106 391 5 17 11 40 13 50 3 10 30 115 61 232 32 117
55 215 52 218 -6 6 -1997 12 -1997 6z"/>
<path d="M2691 5263 c-7 -31 -60 -234 -117 -452 -85 -321 -163 -620 -189 -721
-3 -8 -27 -103 -56 -210 -48 -183 -106 -407 -115 -440 -2 -8 -22 -85 -44 -170
-23 -85 -59 -222 -80 -305 -22 -82 -50 -192 -64 -242 l-24 -93 632 -1 c347 0
820 0 1051 0 231 -1 426 0 433 0 9 1 -3 32 -34 89 -26 48 -58 107 -72 132 -13
25 -39 72 -56 105 -18 33 -71 130 -116 215 -46 85 -85 157 -87 159 -3 4 -305
3 -666 -3 -76 -1 -142 1 -148 5 -8 4 7 75 45 215 31 115 79 295 107 399 28
105 71 262 94 350 l43 160 -27 50 c-16 27 -65 109 -111 180 -86 135 -243 386
-271 433 -19 32 -45 77 -83 147 -16 28 -29 51 -30 52 -1 1 -8 -23 -15 -54z"/>
</g>
</svg>
